<svg height="945" width="1890" xmlns="http://www.w3.org/2000/svg"><path d="m0 0h1890v945h-1890z" fill="#c8313e" stroke-width="1.302922"/><path d="m10 0h210v945h-210z" fill="#fff"/><path d="m220 630h1670v315h-1670z" fill="#4aa657"/><g fill="#c8313e"><path d="m10 7.121h8.219v18.965h-8.219z"/><path d="m220 7.121h-8.219v18.965h8.219z"/><path d="m110.426 0h9.148v34.167h-9.148z"/><path d="m57.121 60.993h10.324v18.944h-10.324z"/><path d="m162.555 60.993h10.324v18.944h-10.324z"/><path d="m10 110.575h8.219v20.381h-8.219z"/><path d="m220 110.575h-8.219v20.381h8.219z"/><path d="m110.426 112.488h9.148v28.782h-9.148z"/><path d="m10 227.428h8.219v20.444h-8.219z"/><path d="m220 227.428h-8.219v20.444h8.219z"/><path d="m110.426 221.911h9.148v28.806h-9.148z"/><path d="m10 349.938h8.219v20.42h-8.219z"/><path d="m220 349.938h-8.219v20.42h8.219z"/><path d="m110.963 401.525h8.073v18.484h-8.073z"/><path d="m74.688 463.298h8.746v18.404h-8.746z"/><path d="m93.976 429.211h7.962v10.982h8.776v16.004h8.572v-16.004h8.776v-10.982h7.962v26.986h-7.962v9.021h-5.396v14.564h5.396v9.022h7.962v26.985h-7.962v-10.982h-8.776v-16.003h-8.572v16.003h-8.776v10.982h-7.962v-26.985h7.962v-9.022h5.396v-14.564h-5.396v-9.021h-7.962z"/><path d="m146.566 463.298h8.746v18.404h-8.746z"/><path d="m110.963 524.991h8.073v18.484h-8.073z"/><path d="m10 574.642h8.219v20.42h-8.219z"/><path d="m220 574.642h-8.219v20.42h8.219z"/><path d="m10 697.128h8.219v20.444h-8.219z"/><path d="m220 697.128h-8.219v20.444h8.219z"/><path d="m110.426 694.283h9.148v28.806h-9.148z"/><path d="m10 814.044h8.219v20.381h-8.219z"/><path d="m220 814.044h-8.219v20.381h8.219z"/><path d="m110.426 803.73h9.148v28.782h-9.148z"/><path d="m57.121 865.063h10.324v18.944h-10.324z"/><path d="m162.555 865.063h10.324v18.944h-10.324z"/><path d="m10 918.914h8.219v18.965h-8.219z"/><path d="m220 918.914h-8.219v18.965h8.219z"/><path d="m110.426 910.833h9.148v34.167h-9.148z"/><path d="m28.197266 144.4707v14.26368h-10.046875v14.7832h-8.150391v9.62109 9.62305h8.150391v14.8418h10.046875v14.2832h11.636718v-14.2832h10.140625v-14.8418h8.294922v-9.62305-9.62109h-8.294922v-14.7832h-10.140625v-14.26368zm1.55664 29.50586h8.677735v9.16211 9.16211h-8.677735v-9.16211z"/><path d="m85.134766 144.4707v14.26368h-10.042969v14.7832h-8.353516v19.24414h8.353516v14.8418h10.042969v14.27734l11.732422.00586v-14.2832h10.082032v-14.8418h16.10156v14.8418h10.08203v14.2832h11.73242v-14.2832h10.04297v-14.8418h8.35352v-9.62305-9.62109h-8.35352v-14.7832h-10.04297v-14.26368h-11.73242v14.26368h-10.08203v14.7832h-16.10156v-14.7832h-10.082032v-14.26368zm1.537109 29.50586h8.679687v9.16211 9.16211h-8.679687v-9.16211zm47.976565 0h8.67968v9.16211 9.16211h-8.67968z"/><path d="m190.16602 144.4707v14.26368h-10.14063v14.7832h-8.29492v9.62109 9.62305h8.29492v14.8418h10.14063v14.2832h11.63671v-14.2832h10.04688v-14.8418h8.15039v-19.24414h-8.15039v-14.7832h-10.04688v-14.26368zm1.40039 29.50586h8.67968v9.16211 9.16211h-8.67968v-9.16211z"/><path d="m28.197266 723.11328v14.2832h-10.046875v14.8418h-8.150391v9.62305 9.62109h8.150391v14.7832h10.046875v14.26368h11.636718v-14.26368h10.140625v-14.7832h8.294922v-9.62109-9.62305h-8.294922v-14.8418h-10.140625v-14.2832zm1.55664 29.58594h8.677735v9.16211 9.16211h-8.677735v-9.16211z"/><path d="m85.134766 723.11328v14.2832h-10.042969v14.8418h-8.353516v19.24414h8.353516v14.7832h10.042969v14.26368h11.732422v-14.26368h10.082032v-14.7832h16.10156v14.7832h10.08203v14.26368h11.73242v-14.26368h10.04297v-14.7832h8.35352v-9.62109-9.62305h-8.35352v-14.8418h-10.04297v-14.2832h-11.73242v14.2832h-10.08203v14.8418h-16.10156v-14.8418h-10.082032v-14.2832zm1.537109 29.58594h8.679687v9.16211 9.16211h-8.679687v-9.16211zm47.976565 0h8.67968v9.16211 9.16211h-8.67968z"/><path d="m190.16602 723.11328v14.2832h-10.14063v14.8418h-8.29492v9.62305 9.62109h8.29492v14.7832h10.14063v14.26368h11.63671v-14.26368h10.04688v-14.7832h8.15039v-9.62109-9.62305h-8.15039v-14.8418h-10.04688v-14.2832zm1.40039 29.58594h8.67968v9.16211 9.16211h-8.67968v-9.16211z"/><path d="m54.390625 790.84766v12.96289h-6.683594v15.49804h-9.539062v14.38868h-11.683594v16.5957h-8.289063v13.65039h-8.195312v21.12305h8.195312v13.62304h8.289063v16.58399h11.683594v14.40429h9.539062v15.32227h29.189453v-15.32227h9.50586v-14.40429h11.65625v-16.58399h8.314456v-13.62304h17.2539v13.62304h8.31446v16.58399h11.65625v14.40429h9.50586v15.32227h29.18945v-15.32227h9.53906v-14.40429h11.68359v-16.58399h8.28907v-13.62304h8.19531v-10.56055-10.5625h-8.19531v-13.65039h-8.28907v-16.5957h-11.68359v-14.38868h-9.53906v-15.49804h-6.68359v-12.96289h-15.78516v12.96289h-6.7207v15.49804h-9.50586v14.38868h-11.65625v16.5957h-8.31446v13.65039h-17.2539v-13.65039h-8.314456v-16.5957h-11.65625v-14.38868h-9.50586v-15.49804h-6.720703v-12.96289zm3.611328 44.88867h8.5625v12.68359h8.123047v16.0918h8.123047v9.99414 9.98047h-8.123047v16.08398h-8.123047v12.69531h-8.5625v-12.69531h-8.181641v-16.08398h-8.058593v-9.98047-9.99414h8.058593v-16.0918h8.181641zm105.433597 0h8.5625v12.68359h8.18164v16.0918h8.05859v9.99414 9.98047h-8.05859v16.08398h-8.18164v12.69531h-8.5625v-12.69531h-8.12305v-16.08398h-8.12305v-19.97461h8.12305v-16.0918h8.12305z"/><path d="m56.828125 208.18359v14.9043h-9.888672v9.82031h-8.142578v14.87891h-8.400391l-.029296 15.20508h-5.857422v13.16601h-6.394532v17.16407h-8.115234v26.70507h5.90625v14.00391h6.279297v17.10352h10.216797v15.18359h12.310547v-15.18359h9.849609v-17.10352h8.296875v-14.00391h-12.636719v-15.48242h21.71875v10.62305h13.097656v17.90234h11.90625v19.72461h-9.005859v14.62305h-6.644531v14.22265h-6.894531v14.0625h-9.449219v13.14258h-7.027344v11.20313h-9.908203v15.08398h-13.328125v-16.7832h-9.525391v-14.06445h-6.951171v-9.58204h-8.210938v33.70704h8.134766v14.5039h6.970703v9.0625h9.52539v14.96289h7.199219v5.56055 5.56055h-7.199219v14.96289h-9.52539v9.0625h-6.970703v14.5039h-8.134766v33.70704h8.210938v-9.58204h6.951171v-14.06445h9.525391v-16.7832h13.328125v15.08398h9.908203v11.20313h7.027344v13.14258h9.449219v14.0625h6.894531v14.22265h6.644531v14.62305h9.005859v19.72461h-11.90625v17.90234h-13.097656v10.62305h-21.71875v-15.48242h12.636719v-14.00391h-8.296875v-17.10352h-9.849609v-15.18164h-12.310547v15.18164h-10.216797v17.10352h-6.279297v14.00391h-5.90625v26.70507h8.115234v17.16407h6.394532v13.16601h5.857422v15.20508h8.429687v14.87891h8.142578v9.82031h9.888672v14.9043h11.984375v-14.9043h9.888672v-9.82031h8.320312v-14.87891h8.234375v-15.20508h6.701171v-12.94531h6.70117v-11.24414h12.6836v11.24414h6.70117v12.94531h6.70117v15.20508h8.23438v14.87891h8.32031v9.82031h9.88867v14.9043h11.98438v-14.9043h9.88867v-9.82031h8.14257v-14.87891h8.42969v-15.20508h5.85742v-13.16601h6.39454v-17.16407h8.11523v-26.70507h-5.90625v-14.00391h-6.2793v-17.10352h-10.21679v-15.18164h-12.31055v15.18164h-9.84961v17.10352h-8.29688v14.00391h12.63672v15.48242h-21.71875v-10.62305h-13.09765v-17.90234h-11.90625v-19.72461h9.00586v-14.62305h6.64453v-14.22265h6.89453v-14.0625h9.44922v-13.24805l7.02734.10547v-11.20313h9.90821v-15.08398h13.32812v16.7832h9.52539v14.06445h6.95117v9.58204h8.21094v-33.70704h-8.13477v-14.5039h-6.9707v-9.0625h-9.52539v-14.96289h-7.19922v-5.56055-5.56055h7.19922v-14.96289h9.52539v-9.0625h6.9707v-14.5039h8.13477v-33.70704h-8.21094v9.58204h-6.95117v14.06445h-9.52539v16.7832h-13.32812v-15.08398h-9.90821v-11.20313h-7.02734v-13.14258h-9.44922v-14.0625h-6.89453v-14.22265h-6.64453v-14.62305h-9.00586v-19.72461h11.90625v-17.90234h13.09765v-10.62305h21.71875v15.48242h-12.63672v14.00391h8.29688v17.10352h9.84961v15.18359h12.31055v-15.18359h10.21679v-17.10352h6.2793v-14.00391h5.90625v-26.70507h-8.11523v-17.16407h-6.39454v-13.16601h-5.85742v-15.20508h-8.42969v-14.87891h-8.14257v-9.82031h-9.88867v-14.9043h-11.98438v14.9043h-9.88867v9.82031h-8.32031v14.87891h-8.23438v15.20508h-6.70117v12.94531h-6.70117v11.24414h-12.6836v-11.24414h-6.70117v-12.94531h-6.701171v-15.20508h-8.234375v-14.87891h-8.21875v-9.82031h-9.990234v-14.9043zm50.468755 162.375h15.40624v14.16211h3.47657v14.6836h9.16015v14.32422h5.6836v10.48242h5.78125v11.14062h10.04297v10.88282h14.42187v26.26562 26.26562h-14.42187v10.88282h-10.04297v11.14062h-5.78125v10.48242h-5.6836v14.32422h-9.16015v14.6836h-3.47657v14.16211h-15.40624v-14.16211h-3.47657v-14.6836h-9.160154v-14.32422h-5.683594v-10.48242h-5.78125v-11.14062h-10.042968v-10.88282h-14.421875v-52.53124h14.421875v-10.88282h10.042968v-11.14062h5.78125v-10.48242h5.683594v-14.32422h9.160154v-14.6836h3.47657z"/><path d="m47.707031 0v15.322266h-9.539062v14.404296h-11.683594v16.583985h-8.289063v13.623047h-8.195312v10.560547 10.5625h8.195312v13.65039h8.289063v16.595699h11.683594v14.38868h9.539062v15.49804h6.683594v12.96289h15.785156v-12.96289h6.720703v-15.49804h9.50586v-14.38868h11.65625v-16.595699h8.314456v-13.65039h17.2539v13.65039h8.31446v16.595699h11.65625v14.38868h9.50586v15.49804h6.7207v12.96289h15.78516v-12.96289h6.68359v-15.49804h9.53906v-14.38868h11.68359v-16.595699h8.28907v-13.65039h8.19531v-21.123047h-8.19531v-13.623047h-8.28907v-16.583985h-11.68359v-14.404296h-9.53906v-15.322266h-29.18945v15.322266h-9.50586v14.404296h-11.65625v16.583985h-8.31446v13.623047h-17.2539v-13.623047h-8.314456v-16.583985h-11.65625v-14.404296h-9.50586v-15.322266zm10.294922 31.734375h8.5625v12.695313h8.123047v16.083984h8.123047v9.980469 9.99414h-8.123047v16.091797h-8.123047v12.683592h-8.5625v-12.412108l-8.181641-.271484v-16.091797h-8.058593v-9.99414-9.980469h8.058593v-16.083984h8.181641zm105.433597 0h8.5625v12.695313h8.18164v16.083984h8.05859v9.980469 9.99414h-8.05859v16.091797h-8.18164v12.683592h-8.5625v-12.683592h-8.12305v-16.091797h-8.12305v-9.99414-9.980469h8.12305v-16.083984h8.12305z"/></g></svg>